<svg id="Calque_1" data-name="Calque 1" xmlns="http://www.w3.org/2000/svg" viewBox="0 0 1020 323.15"><polygon points="112.22 81.09 161.57 81.09 104.11 143.48 165.44 247.46 118.21 247.46 100.76 217.22 75.91 174.14 52.65 201.28 52.65 247.46 10 247.46 10 10.24 52.65 10.24 52.65 154.05 60.65 144.25 112.22 81.09" style="fill:#030c11"/><path d="M168.26,203.53c0-37.36,27.84-45.82,65.2-53.93,30.67-6,46.18-7.4,47.24-16.56v-1.76c0-9.88-8.82-19-31.37-19s-33.14,11.28-34.2,26.08v2.47H171.78c1.41-37.72,31-62.74,77.9-62.74,45.11,0,72.61,19.74,72.61,64.85V247.59h-42V225c-10.57,17.27-29.6,26.79-54.28,26.79-35.6,0-57.8-19.38-57.8-48.29M280.7,178.85V164.76c-9.52,5.64-25,8.46-38.78,12-16.92,4.23-29.6,9.87-29.6,24.68,0,11.27,8.81,19,24,19,20.8,0,43.36-10.57,44.42-41.6" style="fill:#030c11"/><rect x="352.95" y="10.37" width="44.06" height="237.22" style="fill:#030c11"/><path d="M429.43,10h45.48V52.65H429.43Zm.71,71.22H474.2V247.59H430.14Z" style="fill:#030c11"/><path d="M498.87,164.76c0-50.76,35.25-86.71,85.65-86.71,50.05,0,85.3,36,85.3,86.71,0,50.05-36,86-86.36,86-50.05,0-84.59-35.24-84.59-86m126.53,1.05v-1.4c0-31.73-15.51-50.76-40.88-50.76-25.73,0-41.24,19-41.24,50.76v1.4c0,31,15.15,49.35,40.53,49.35,25.73,0,41.59-18.33,41.59-49.35" style="fill:#030c11"/><path d="M694.13,81.22h43.35v21.15c11.28-15.51,28.91-24.67,50.76-24.67,41.94,0,74,32.43,74,85.3v.35c0,53.93-31.72,87.76-74.38,87.76-21.14,0-38.76-9.16-50.4-24.67v86.71H694.13Zm122.31,83.54v-2.47c0-32.78-15.87-49-40.19-49-25.37,0-40.88,20.79-40.88,50.4v3.17c0,29.26,14.8,48.65,40.88,48.65,23.62,0,40.19-18,40.19-50.76" style="fill:#030c11"/><polygon points="939.4 80.24 953.94 80.24 1010 10 946.62 10 918.7 45.12 918.82 45.12 939.4 80.24" style="fill:#4d7ae8"/><polygon points="890.77 80.24 918.7 45.12 855.65 45.12 923.07 159.25 985.7 159.25 939.4 80.24 890.77 80.24" style="fill:#1be2bc"/><polygon points="939.4 80.24 918.82 45.12 918.7 45.12 890.77 80.24 939.4 80.24" style="fill:#1448ed"/></svg>